<svg width="662" height="292" viewBox="0 0 662 292" fill="none" xmlns="http://www.w3.org/2000/svg">
<rect x="0.5" y="4.5" width="661" height="283" rx="4.5" fill="#010101" stroke="#F0F0F0"/>
<rect x="4.5" y="0.5" width="653" height="291" rx="4.5" stroke="#F0F0F0"/>
<g filter="url(#filter0_d_217_7)">
<path d="M48.36 122.36C49.48 122.413 50.9467 122.467 52.76 122.52C54.5733 122.573 56.36 122.6 58.12 122.6C60.6267 122.6 63.0267 122.573 65.32 122.52C67.6133 122.467 69.24 122.44 70.2 122.44C76.6533 122.44 81.48 123.907 84.68 126.84C87.88 129.773 89.48 133.56 89.48 138.2C89.48 140.12 89.16 142.147 88.52 144.28C87.88 146.36 86.76 148.307 85.16 150.12C83.6133 151.88 81.48 153.32 78.76 154.44C76.04 155.56 72.6 156.12 68.44 156.12H60.76V154.52H67.64C71.4267 154.52 74.3067 153.8 76.28 152.36C78.3067 150.92 79.6667 149.027 80.36 146.68C81.1067 144.333 81.48 141.8 81.48 139.08C81.48 134.013 80.4667 130.227 78.44 127.72C76.4667 125.213 73.0533 123.96 68.2 123.96C65.7467 123.96 64.1467 124.413 63.4 125.32C62.6533 126.227 62.28 128.067 62.28 130.84V170.52C62.28 172.44 62.4667 173.88 62.84 174.84C63.2667 175.8 64.0667 176.44 65.24 176.76C66.4133 177.08 68.12 177.293 70.36 177.4V179C68.9733 178.893 67.2133 178.84 65.08 178.84C62.9467 178.787 60.7867 178.76 58.6 178.76C56.52 178.76 54.5733 178.787 52.76 178.84C50.9467 178.84 49.48 178.893 48.36 179V177.4C50.1733 177.293 51.5333 177.08 52.44 176.76C53.4 176.44 54.04 175.8 54.36 174.84C54.68 173.88 54.84 172.44 54.84 170.52V130.84C54.84 128.867 54.68 127.427 54.36 126.52C54.04 125.56 53.4 124.92 52.44 124.6C51.5333 124.227 50.1733 124.013 48.36 123.96V122.36ZM137.477 121.24C142.544 121.24 146.97 122.387 150.757 124.68C154.597 126.973 157.557 130.28 159.637 134.6C161.77 138.867 162.837 144.067 162.837 150.2C162.837 156.173 161.744 161.4 159.557 165.88C157.424 170.36 154.437 173.853 150.597 176.36C146.757 178.867 142.357 180.12 137.397 180.12C132.33 180.12 127.877 178.973 124.037 176.68C120.25 174.387 117.29 171.08 115.157 166.76C113.077 162.44 112.037 157.24 112.037 151.16C112.037 145.187 113.13 139.96 115.317 135.48C117.504 131 120.49 127.507 124.277 125C128.117 122.493 132.517 121.24 137.477 121.24ZM137.157 122.68C133.69 122.68 130.677 123.88 128.117 126.28C125.557 128.68 123.557 131.987 122.117 136.2C120.73 140.413 120.037 145.293 120.037 150.84C120.037 156.493 120.81 161.427 122.357 165.64C123.957 169.8 126.09 173.027 128.757 175.32C131.477 177.56 134.464 178.68 137.717 178.68C141.184 178.68 144.197 177.48 146.757 175.08C149.317 172.68 151.29 169.373 152.677 165.16C154.117 160.893 154.837 156.013 154.837 150.52C154.837 144.813 154.037 139.88 152.437 135.72C150.89 131.56 148.784 128.36 146.117 126.12C143.45 123.827 140.464 122.68 137.157 122.68ZM185.829 122.36C186.949 122.413 188.415 122.467 190.229 122.52C192.042 122.573 193.829 122.6 195.589 122.6C198.095 122.6 200.495 122.573 202.789 122.52C205.082 122.467 206.709 122.44 207.669 122.44C211.989 122.44 215.562 123.053 218.389 124.28C221.269 125.507 223.402 127.187 224.789 129.32C226.229 131.4 226.949 133.747 226.949 136.36C226.949 137.96 226.629 139.667 225.989 141.48C225.349 143.293 224.229 145 222.629 146.6C221.082 148.2 218.949 149.533 216.229 150.6C213.509 151.613 210.069 152.12 205.909 152.12H198.229V150.52H205.109C208.895 150.52 211.775 149.933 213.749 148.76C215.775 147.533 217.135 145.933 217.829 143.96C218.575 141.933 218.949 139.693 218.949 137.24C218.949 133.027 217.935 129.773 215.909 127.48C213.935 125.133 210.522 123.96 205.669 123.96C203.215 123.96 201.615 124.413 200.869 125.32C200.122 126.227 199.749 128.067 199.749 130.84V170.52C199.749 172.44 199.909 173.88 200.229 174.84C200.549 175.8 201.162 176.44 202.069 176.76C203.029 177.08 204.415 177.293 206.229 177.4V179C205.002 178.893 203.455 178.84 201.589 178.84C199.775 178.787 197.935 178.76 196.069 178.76C193.989 178.76 192.042 178.787 190.229 178.84C188.415 178.84 186.949 178.893 185.829 179V177.4C187.642 177.293 189.002 177.08 189.909 176.76C190.869 176.44 191.509 175.8 191.829 174.84C192.149 173.88 192.309 172.44 192.309 170.52V130.84C192.309 128.867 192.149 127.427 191.829 126.52C191.509 125.56 190.869 124.92 189.909 124.6C189.002 124.227 187.642 124.013 185.829 123.96V122.36ZM198.549 150.76C201.429 150.867 203.695 151 205.349 151.16C207.002 151.267 208.335 151.373 209.349 151.48C210.415 151.587 211.429 151.72 212.389 151.88C215.962 152.467 218.522 153.56 220.069 155.16C221.669 156.707 222.842 159.133 223.589 162.44L225.589 170.6C226.122 172.947 226.655 174.653 227.189 175.72C227.775 176.733 228.655 177.213 229.829 177.16C230.735 177.107 231.482 176.813 232.069 176.28C232.709 175.747 233.375 175.027 234.069 174.12L235.269 175C234.149 176.653 232.975 177.933 231.749 178.84C230.575 179.693 228.895 180.12 226.709 180.12C224.735 180.12 223.002 179.533 221.509 178.36C220.015 177.187 218.895 174.893 218.149 171.48L216.389 163.48C215.909 161.187 215.349 159.213 214.709 157.56C214.122 155.853 213.269 154.52 212.149 153.56C211.082 152.6 209.482 152.12 207.349 152.12H198.709L198.549 150.76ZM297.157 122.36C296.944 124.387 296.784 126.36 296.677 128.28C296.624 130.147 296.597 131.587 296.597 132.6C296.597 133.88 296.624 135.08 296.677 136.2C296.73 137.32 296.784 138.307 296.837 139.16H294.997C294.624 135.427 294.117 132.493 293.477 130.36C292.837 128.173 291.717 126.6 290.117 125.64C288.517 124.68 286.037 124.2 282.677 124.2H278.357V169.72C278.357 171.853 278.544 173.453 278.917 174.52C279.344 175.587 280.144 176.307 281.317 176.68C282.49 177.053 284.197 177.293 286.437 177.4V179C285.05 178.893 283.29 178.84 281.157 178.84C279.024 178.787 276.864 178.76 274.677 178.76C272.277 178.76 270.01 178.787 267.877 178.84C265.797 178.84 264.117 178.893 262.837 179V177.4C265.077 177.293 266.784 177.053 267.957 176.68C269.13 176.307 269.904 175.587 270.277 174.52C270.704 173.453 270.917 171.853 270.917 169.72V124.2H266.597C263.29 124.2 260.81 124.68 259.157 125.64C257.557 126.6 256.437 128.173 255.797 130.36C255.157 132.493 254.65 135.427 254.277 139.16H252.437C252.544 138.307 252.597 137.32 252.597 136.2C252.65 135.08 252.677 133.88 252.677 132.6C252.677 131.587 252.624 130.147 252.517 128.28C252.464 126.36 252.33 124.387 252.117 122.36C254.357 122.413 256.784 122.467 259.397 122.52C262.064 122.573 264.73 122.6 267.397 122.6C270.064 122.6 272.49 122.6 274.677 122.6C276.864 122.6 279.264 122.6 281.877 122.6C284.544 122.6 287.21 122.573 289.877 122.52C292.544 122.467 294.97 122.413 297.157 122.36ZM358.764 122.36C358.551 124.387 358.391 126.36 358.284 128.28C358.231 130.147 358.204 131.587 358.204 132.6C358.204 133.88 358.231 135.08 358.284 136.2C358.338 137.32 358.391 138.307 358.444 139.16H356.604C356.231 135.427 355.724 132.493 355.084 130.36C354.444 128.173 353.324 126.6 351.724 125.64C350.124 124.68 347.644 124.2 344.284 124.2H339.244C337.431 124.2 336.044 124.36 335.084 124.68C334.178 124.947 333.564 125.56 333.244 126.52C332.924 127.427 332.764 128.867 332.764 130.84V170.52C332.764 172.44 332.951 173.88 333.324 174.84C333.751 175.8 334.551 176.44 335.724 176.76C336.898 177.08 338.604 177.293 340.844 177.4V179C339.458 178.893 337.698 178.84 335.564 178.84C333.431 178.787 331.271 178.76 329.084 178.76C327.004 178.76 325.058 178.787 323.244 178.84C321.431 178.84 319.964 178.893 318.844 179V177.4C320.658 177.293 322.018 177.08 322.924 176.76C323.884 176.44 324.524 175.8 324.844 174.84C325.164 173.88 325.324 172.44 325.324 170.52V130.84C325.324 128.867 325.164 127.427 324.844 126.52C324.524 125.56 323.884 124.92 322.924 124.6C322.018 124.227 320.658 124.013 318.844 123.96V122.36C320.818 122.413 322.898 122.467 325.084 122.52C327.271 122.52 329.431 122.547 331.564 122.6C333.698 122.6 335.671 122.6 337.484 122.6C339.351 122.6 340.871 122.6 342.044 122.6C344.498 122.6 347.271 122.6 350.364 122.6C353.511 122.547 356.311 122.467 358.764 122.36ZM346.364 150.52C346.364 150.52 346.364 150.787 346.364 151.32C346.364 151.853 346.364 152.12 346.364 152.12H330.364C330.364 152.12 330.364 151.853 330.364 151.32C330.364 150.787 330.364 150.52 330.364 150.52H346.364ZM347.884 139.96C347.671 143 347.564 145.32 347.564 146.92C347.618 148.52 347.644 149.987 347.644 151.32C347.644 152.653 347.671 154.12 347.724 155.72C347.778 157.32 347.911 159.64 348.124 162.68H346.284C346.071 160.973 345.804 159.32 345.484 157.72C345.218 156.067 344.578 154.733 343.564 153.72C342.604 152.653 340.951 152.12 338.604 152.12V150.52C340.364 150.52 341.698 150.173 342.604 149.48C343.564 148.733 344.258 147.8 344.684 146.68C345.111 145.56 345.404 144.413 345.564 143.24C345.724 142.013 345.884 140.92 346.044 139.96H347.884ZM405.93 121.24C410.997 121.24 415.423 122.387 419.21 124.68C423.05 126.973 426.01 130.28 428.09 134.6C430.223 138.867 431.29 144.067 431.29 150.2C431.29 156.173 430.197 161.4 428.01 165.88C425.877 170.36 422.89 173.853 419.05 176.36C415.21 178.867 410.81 180.12 405.85 180.12C400.783 180.12 396.33 178.973 392.49 176.68C388.703 174.387 385.743 171.08 383.61 166.76C381.53 162.44 380.49 157.24 380.49 151.16C380.49 145.187 381.583 139.96 383.77 135.48C385.957 131 388.943 127.507 392.73 125C396.57 122.493 400.97 121.24 405.93 121.24ZM405.61 122.68C402.143 122.68 399.13 123.88 396.57 126.28C394.01 128.68 392.01 131.987 390.57 136.2C389.183 140.413 388.49 145.293 388.49 150.84C388.49 156.493 389.263 161.427 390.81 165.64C392.41 169.8 394.543 173.027 397.21 175.32C399.93 177.56 402.917 178.68 406.17 178.68C409.637 178.68 412.65 177.48 415.21 175.08C417.77 172.68 419.743 169.373 421.13 165.16C422.57 160.893 423.29 156.013 423.29 150.52C423.29 144.813 422.49 139.88 420.89 135.72C419.343 131.56 417.237 128.36 414.57 126.12C411.903 123.827 408.917 122.68 405.61 122.68ZM474.682 122.36V123.96C472.869 124.013 471.482 124.227 470.522 124.6C469.615 124.92 469.002 125.56 468.682 126.52C468.362 127.427 468.202 128.867 468.202 130.84V170.52C468.202 172.44 468.362 173.88 468.682 174.84C469.002 175.8 469.615 176.44 470.522 176.76C471.482 177.027 472.869 177.16 474.682 177.16H480.522C483.029 177.16 485.055 176.893 486.602 176.36C488.202 175.827 489.455 175 490.362 173.88C491.322 172.707 492.042 171.16 492.522 169.24C493.002 167.32 493.375 164.973 493.642 162.2H495.482C495.322 163.853 495.242 166.04 495.242 168.76C495.242 169.773 495.269 171.24 495.322 173.16C495.429 175.027 495.589 176.973 495.802 179C493.082 178.893 490.015 178.84 486.602 178.84C483.189 178.787 480.149 178.76 477.482 178.76C476.309 178.76 474.789 178.76 472.922 178.76C471.109 178.76 469.135 178.787 467.002 178.84C464.869 178.84 462.709 178.867 460.522 178.92C458.335 178.92 456.255 178.947 454.282 179V177.4C456.095 177.293 457.455 177.08 458.362 176.76C459.322 176.44 459.962 175.8 460.282 174.84C460.602 173.88 460.762 172.44 460.762 170.52V130.84C460.762 128.867 460.602 127.427 460.282 126.52C459.962 125.56 459.322 124.92 458.362 124.6C457.455 124.227 456.095 124.013 454.282 123.96V122.36C455.402 122.413 456.869 122.467 458.682 122.52C460.495 122.573 462.442 122.6 464.522 122.6C466.389 122.6 468.229 122.573 470.042 122.52C471.909 122.467 473.455 122.413 474.682 122.36ZM537.713 122.36V123.96C535.9 124.013 534.513 124.227 533.553 124.6C532.646 124.92 532.033 125.56 531.713 126.52C531.393 127.427 531.233 128.867 531.233 130.84V170.52C531.233 172.44 531.393 173.88 531.713 174.84C532.033 175.8 532.646 176.44 533.553 176.76C534.513 177.08 535.9 177.293 537.713 177.4V179C536.486 178.893 534.94 178.84 533.073 178.84C531.26 178.787 529.42 178.76 527.553 178.76C525.473 178.76 523.526 178.787 521.713 178.84C519.9 178.84 518.433 178.893 517.313 179V177.4C519.126 177.293 520.486 177.08 521.393 176.76C522.353 176.44 522.993 175.8 523.313 174.84C523.633 173.88 523.793 172.44 523.793 170.52V130.84C523.793 128.867 523.633 127.427 523.313 126.52C522.993 125.56 522.353 124.92 521.393 124.6C520.486 124.227 519.126 124.013 517.313 123.96V122.36C518.433 122.413 519.9 122.467 521.713 122.52C523.526 122.573 525.473 122.6 527.553 122.6C529.42 122.6 531.26 122.573 533.073 122.52C534.94 122.467 536.486 122.413 537.713 122.36ZM586.118 121.24C591.184 121.24 595.611 122.387 599.398 124.68C603.238 126.973 606.198 130.28 608.278 134.6C610.411 138.867 611.478 144.067 611.478 150.2C611.478 156.173 610.384 161.4 608.198 165.88C606.064 170.36 603.078 173.853 599.238 176.36C595.398 178.867 590.998 180.12 586.038 180.12C580.971 180.12 576.518 178.973 572.678 176.68C568.891 174.387 565.931 171.08 563.798 166.76C561.718 162.44 560.678 157.24 560.678 151.16C560.678 145.187 561.771 139.96 563.958 135.48C566.144 131 569.131 127.507 572.918 125C576.758 122.493 581.158 121.24 586.118 121.24ZM585.798 122.68C582.331 122.68 579.318 123.88 576.758 126.28C574.198 128.68 572.198 131.987 570.758 136.2C569.371 140.413 568.678 145.293 568.678 150.84C568.678 156.493 569.451 161.427 570.998 165.64C572.598 169.8 574.731 173.027 577.398 175.32C580.118 177.56 583.104 178.68 586.358 178.68C589.824 178.68 592.838 177.48 595.398 175.08C597.958 172.68 599.931 169.373 601.318 165.16C602.758 160.893 603.477 156.013 603.477 150.52C603.477 144.813 602.678 139.88 601.078 135.72C599.531 131.56 597.424 128.36 594.758 126.12C592.091 123.827 589.104 122.68 585.798 122.68Z" fill="#DADADA"/>
</g>
<g filter="url(#filter1_d_217_7)">
<path d="M51.46 72.74L56.34 85.32C56.54 85.8267 56.7667 86.1667 57.02 86.34C57.2733 86.5 57.5067 86.5867 57.72 86.6V87C57.4533 86.9733 57.1267 86.96 56.74 86.96C56.3533 86.9467 55.9667 86.94 55.58 86.94C55.06 86.94 54.5733 86.9467 54.12 86.96C53.6667 86.96 53.3 86.9733 53.02 87V86.6C53.7 86.5733 54.1333 86.46 54.32 86.26C54.5067 86.0467 54.4667 85.6 54.2 84.92L50.48 74.98L50.8 74.72L47.32 83.76C47.1067 84.2933 46.98 84.7467 46.94 85.12C46.9 85.48 46.9333 85.7667 47.04 85.98C47.16 86.1933 47.3533 86.3467 47.62 86.44C47.9 86.5333 48.2467 86.5867 48.66 86.6V87C48.2867 86.9733 47.8933 86.96 47.48 86.96C47.08 86.9467 46.7067 86.94 46.36 86.94C46.0267 86.94 45.74 86.9467 45.5 86.96C45.2733 86.96 45.06 86.9733 44.86 87V86.6C45.1267 86.5333 45.4 86.38 45.68 86.14C45.96 85.8867 46.2133 85.46 46.44 84.86L51.14 72.74C51.1933 72.74 51.2467 72.74 51.3 72.74C51.3533 72.74 51.4067 72.74 51.46 72.74ZM53.9 81.24V81.64H47.94L48.14 81.24H53.9ZM78.3977 76.42C78.7577 76.42 79.071 76.4933 79.3377 76.64C79.6177 76.7867 79.831 76.98 79.9777 77.22C80.1377 77.4467 80.2177 77.7067 80.2177 78C80.2177 78.3333 80.111 78.6267 79.8977 78.88C79.6977 79.1333 79.4243 79.26 79.0777 79.26C78.7977 79.26 78.551 79.1733 78.3377 79C78.1243 78.8133 78.0177 78.5533 78.0177 78.22C78.0177 77.9667 78.0843 77.7533 78.2177 77.58C78.3643 77.3933 78.5243 77.2467 78.6977 77.14C78.6043 77.0067 78.4643 76.94 78.2777 76.94C77.8643 76.94 77.4843 77.0667 77.1377 77.32C76.791 77.56 76.4977 77.8733 76.2577 78.26C76.0177 78.6467 75.831 79.06 75.6977 79.5C75.5643 79.9267 75.4977 80.3267 75.4977 80.7V84.94C75.4977 85.5933 75.6843 86.0333 76.0577 86.26C76.4443 86.4733 76.9643 86.58 77.6177 86.58V87C77.311 86.9867 76.8777 86.9733 76.3177 86.96C75.7577 86.9333 75.1643 86.92 74.5377 86.92C74.0843 86.92 73.631 86.9333 73.1777 86.96C72.7377 86.9733 72.4043 86.9867 72.1777 87V86.58C72.7243 86.58 73.111 86.48 73.3377 86.28C73.5777 86.08 73.6977 85.7 73.6977 85.14V78.88C73.6977 78.28 73.591 77.84 73.3777 77.56C73.1643 77.2667 72.7643 77.12 72.1777 77.12V76.7C72.6043 76.74 73.0177 76.76 73.4177 76.76C73.8043 76.76 74.171 76.74 74.5177 76.7C74.8777 76.6467 75.2043 76.5733 75.4977 76.48V78.98C75.6443 78.5933 75.851 78.2067 76.1177 77.82C76.3977 77.42 76.731 77.0867 77.1177 76.82C77.5043 76.5533 77.931 76.42 78.3977 76.42ZM98.3039 73.38V76.72H101.264V77.12H98.3039V84.86C98.3039 85.4867 98.4172 85.9267 98.6439 86.18C98.8706 86.4333 99.1839 86.56 99.5839 86.56C99.9839 86.56 100.331 86.4 100.624 86.08C100.917 85.7467 101.171 85.1933 101.384 84.42L101.784 84.52C101.651 85.2933 101.384 85.9467 100.984 86.48C100.597 87.0133 99.9972 87.28 99.1839 87.28C98.7306 87.28 98.3572 87.22 98.0639 87.1C97.7706 86.9933 97.5106 86.8333 97.2839 86.62C96.9906 86.3133 96.7839 85.9467 96.6639 85.52C96.5572 85.0933 96.5039 84.5267 96.5039 83.82V77.12H94.5839V76.72H96.5039V73.66C96.8372 73.6467 97.1572 73.62 97.4639 73.58C97.7706 73.54 98.0506 73.4733 98.3039 73.38Z" fill="#DADADA"/>
</g>
<g filter="url(#filter2_d_217_7)">
<path d="M416.84 216.84C417.12 216.853 417.487 216.867 417.94 216.88C418.393 216.893 418.84 216.9 419.28 216.9C419.907 216.9 420.507 216.893 421.08 216.88C421.653 216.867 422.06 216.86 422.3 216.86C423.7 216.86 424.753 217.153 425.46 217.74C426.167 218.327 426.52 219.08 426.52 220C426.52 220.467 426.42 220.927 426.22 221.38C426.033 221.82 425.713 222.227 425.26 222.6C424.82 222.96 424.227 223.253 423.48 223.48V223.52C424.533 223.653 425.353 223.907 425.94 224.28C426.54 224.64 426.96 225.067 427.2 225.56C427.44 226.053 427.56 226.573 427.56 227.12C427.56 227.88 427.367 228.553 426.98 229.14C426.607 229.713 426.06 230.167 425.34 230.5C424.62 230.833 423.76 231 422.76 231C422.467 231 422.027 230.993 421.44 230.98C420.853 230.953 420.147 230.94 419.32 230.94C418.853 230.94 418.393 230.947 417.94 230.96C417.487 230.96 417.12 230.973 416.84 231V230.6C417.293 230.573 417.633 230.52 417.86 230.44C418.1 230.36 418.26 230.2 418.34 229.96C418.42 229.72 418.46 229.36 418.46 228.88V218.96C418.46 218.467 418.42 218.107 418.34 217.88C418.26 217.64 418.1 217.48 417.86 217.4C417.633 217.307 417.293 217.253 416.84 217.24V216.84ZM421.8 217.24C421.187 217.24 420.787 217.353 420.6 217.58C420.413 217.807 420.32 218.267 420.32 218.96V228.88C420.32 229.347 420.36 229.7 420.44 229.94C420.52 230.18 420.667 230.34 420.88 230.42C421.093 230.5 421.407 230.54 421.82 230.54C423.127 230.54 424.073 230.24 424.66 229.64C425.26 229.027 425.56 228.16 425.56 227.04C425.56 226.013 425.28 225.22 424.72 224.66C424.173 224.1 423.267 223.82 422 223.82H419.94C419.94 223.82 419.94 223.767 419.94 223.66C419.94 223.54 419.94 223.48 419.94 223.48H421.66C422.447 223.48 423.053 223.333 423.48 223.04C423.907 222.733 424.2 222.333 424.36 221.84C424.52 221.333 424.6 220.793 424.6 220.22C424.6 219.233 424.38 218.493 423.94 218C423.513 217.493 422.8 217.24 421.8 217.24ZM449.163 220.42C449.523 220.42 449.837 220.493 450.103 220.64C450.383 220.787 450.597 220.98 450.743 221.22C450.903 221.447 450.983 221.707 450.983 222C450.983 222.333 450.877 222.627 450.663 222.88C450.463 223.133 450.19 223.26 449.843 223.26C449.563 223.26 449.317 223.173 449.103 223C448.89 222.813 448.783 222.553 448.783 222.22C448.783 221.967 448.85 221.753 448.983 221.58C449.13 221.393 449.29 221.247 449.463 221.14C449.37 221.007 449.23 220.94 449.043 220.94C448.63 220.94 448.25 221.067 447.903 221.32C447.557 221.56 447.263 221.873 447.023 222.26C446.783 222.647 446.597 223.06 446.463 223.5C446.33 223.927 446.263 224.327 446.263 224.7V228.94C446.263 229.593 446.45 230.033 446.823 230.26C447.21 230.473 447.73 230.58 448.383 230.58V231C448.077 230.987 447.643 230.973 447.083 230.96C446.523 230.933 445.93 230.92 445.303 230.92C444.85 230.92 444.397 230.933 443.943 230.96C443.503 230.973 443.17 230.987 442.943 231V230.58C443.49 230.58 443.877 230.48 444.103 230.28C444.343 230.08 444.463 229.7 444.463 229.14V222.88C444.463 222.28 444.357 221.84 444.143 221.56C443.93 221.267 443.53 221.12 442.943 221.12V220.7C443.37 220.74 443.783 220.76 444.183 220.76C444.57 220.76 444.937 220.74 445.283 220.7C445.643 220.647 445.97 220.573 446.263 220.48V222.98C446.41 222.593 446.617 222.207 446.883 221.82C447.163 221.42 447.497 221.087 447.883 220.82C448.27 220.553 448.697 220.42 449.163 220.42ZM475.15 220.7V221.1C474.896 221.127 474.663 221.24 474.45 221.44C474.236 221.64 474.036 221.993 473.85 222.5L470.57 231.1H470.23L466.55 222.24C466.296 221.72 466.043 221.407 465.79 221.3C465.55 221.18 465.35 221.12 465.19 221.12V220.7C465.483 220.74 465.79 220.773 466.11 220.8C466.43 220.813 466.776 220.82 467.15 220.82C467.563 220.82 467.996 220.807 468.45 220.78C468.916 220.753 469.35 220.727 469.75 220.7V221.12C469.416 221.12 469.116 221.147 468.85 221.2C468.596 221.24 468.436 221.38 468.37 221.62C468.303 221.847 468.383 222.24 468.61 222.8L471.07 228.9L470.95 228.94L473.23 222.98C473.403 222.54 473.47 222.193 473.43 221.94C473.403 221.673 473.27 221.473 473.03 221.34C472.79 221.207 472.43 221.127 471.95 221.1V220.7C472.19 220.713 472.396 220.727 472.57 220.74C472.743 220.74 472.91 220.747 473.07 220.76C473.243 220.76 473.43 220.76 473.63 220.76C473.936 220.76 474.21 220.753 474.45 220.74C474.703 220.727 474.936 220.713 475.15 220.7ZM470.57 231.1L469.89 232.84C469.756 233.173 469.616 233.453 469.47 233.68C469.336 233.907 469.19 234.093 469.03 234.24C468.816 234.44 468.563 234.573 468.27 234.64C467.976 234.72 467.71 234.76 467.47 234.76C467.216 234.76 466.983 234.713 466.77 234.62C466.57 234.527 466.41 234.387 466.29 234.2C466.17 234.027 466.11 233.813 466.11 233.56C466.11 233.24 466.203 232.98 466.39 232.78C466.576 232.593 466.836 232.5 467.17 232.5C467.45 232.5 467.69 232.58 467.89 232.74C468.09 232.9 468.19 233.133 468.19 233.44C468.19 233.667 468.136 233.853 468.03 234C467.923 234.147 467.796 234.26 467.65 234.34C467.676 234.353 467.696 234.36 467.71 234.36C467.736 234.36 467.756 234.36 467.77 234.36C468.13 234.36 468.45 234.233 468.73 233.98C469.01 233.74 469.256 233.347 469.47 232.8L470.19 230.94L470.57 231.1ZM492.65 231.14C492.104 231.14 491.63 231.04 491.23 230.84C490.83 230.627 490.524 230.333 490.31 229.96C490.11 229.587 490.01 229.153 490.01 228.66C490.01 228.073 490.144 227.593 490.41 227.22C490.69 226.847 491.044 226.547 491.47 226.32C491.897 226.093 492.344 225.907 492.81 225.76C493.29 225.6 493.744 225.453 494.17 225.32C494.597 225.173 494.944 225.007 495.21 224.82C495.49 224.633 495.63 224.387 495.63 224.08V222.84C495.63 222.28 495.544 221.853 495.37 221.56C495.21 221.267 494.99 221.073 494.71 220.98C494.43 220.873 494.117 220.82 493.77 220.82C493.437 220.82 493.077 220.867 492.69 220.96C492.317 221.053 492.017 221.247 491.79 221.54C492.044 221.593 492.264 221.727 492.45 221.94C492.637 222.153 492.73 222.427 492.73 222.76C492.73 223.093 492.624 223.36 492.41 223.56C492.197 223.747 491.924 223.84 491.59 223.84C491.204 223.84 490.917 223.72 490.73 223.48C490.557 223.227 490.47 222.947 490.47 222.64C490.47 222.293 490.557 222.013 490.73 221.8C490.904 221.587 491.124 221.387 491.39 221.2C491.697 220.987 492.09 220.807 492.57 220.66C493.064 220.5 493.617 220.42 494.23 220.42C494.777 220.42 495.244 220.487 495.63 220.62C496.017 220.74 496.337 220.92 496.59 221.16C496.937 221.48 497.164 221.873 497.27 222.34C497.377 222.793 497.43 223.34 497.43 223.98V229.54C497.43 229.873 497.477 230.113 497.57 230.26C497.677 230.407 497.837 230.48 498.05 230.48C498.197 230.48 498.337 230.447 498.47 230.38C498.604 230.313 498.764 230.207 498.95 230.06L499.17 230.4C498.89 230.613 498.624 230.793 498.37 230.94C498.117 231.073 497.777 231.14 497.35 231.14C496.964 231.14 496.644 231.073 496.39 230.94C496.137 230.807 495.944 230.613 495.81 230.36C495.69 230.093 495.63 229.76 495.63 229.36C495.27 229.96 494.837 230.407 494.33 230.7C493.837 230.993 493.277 231.14 492.65 231.14ZM493.37 230.34C493.81 230.34 494.217 230.213 494.59 229.96C494.977 229.707 495.324 229.327 495.63 228.82V224.9C495.47 225.127 495.237 225.32 494.93 225.48C494.624 225.627 494.29 225.78 493.93 225.94C493.57 226.087 493.224 226.267 492.89 226.48C492.57 226.68 492.304 226.947 492.09 227.28C491.877 227.613 491.77 228.047 491.77 228.58C491.77 229.113 491.91 229.54 492.19 229.86C492.484 230.18 492.877 230.34 493.37 230.34ZM520.491 220.42C520.998 220.42 521.418 220.487 521.751 220.62C522.098 220.753 522.385 220.94 522.611 221.18C522.865 221.447 523.045 221.78 523.151 222.18C523.258 222.58 523.311 223.12 523.311 223.8V229.14C523.311 229.7 523.425 230.08 523.651 230.28C523.891 230.48 524.285 230.58 524.831 230.58V231C524.605 230.987 524.258 230.973 523.791 230.96C523.325 230.933 522.871 230.92 522.431 230.92C521.991 230.92 521.558 230.933 521.131 230.96C520.718 230.973 520.405 230.987 520.191 231V230.58C520.671 230.58 521.011 230.48 521.211 230.28C521.411 230.08 521.511 229.7 521.511 229.14V223.36C521.511 222.947 521.478 222.567 521.411 222.22C521.345 221.873 521.191 221.593 520.951 221.38C520.725 221.167 520.371 221.06 519.891 221.06C519.331 221.06 518.838 221.22 518.411 221.54C517.998 221.86 517.671 222.3 517.431 222.86C517.205 223.407 517.091 224.02 517.091 224.7V229.14C517.091 229.7 517.191 230.08 517.391 230.28C517.591 230.48 517.931 230.58 518.411 230.58V231C518.198 230.987 517.878 230.973 517.451 230.96C517.038 230.933 516.611 230.92 516.171 230.92C515.731 230.92 515.278 230.933 514.811 230.96C514.345 230.973 513.998 230.987 513.771 231V230.58C514.318 230.58 514.705 230.48 514.931 230.28C515.171 230.08 515.291 229.7 515.291 229.14V222.88C515.291 222.28 515.185 221.84 514.971 221.56C514.758 221.267 514.358 221.12 513.771 221.12V220.7C514.198 220.74 514.611 220.76 515.011 220.76C515.398 220.76 515.765 220.74 516.111 220.7C516.471 220.647 516.798 220.573 517.091 220.48V222.84C517.438 221.933 517.918 221.307 518.531 220.96C519.158 220.6 519.811 220.42 520.491 220.42ZM564.045 216.84V217.24C563.592 217.253 563.245 217.307 563.005 217.4C562.779 217.48 562.625 217.64 562.545 217.88C562.465 218.107 562.425 218.467 562.425 218.96V228.88C562.425 229.36 562.465 229.72 562.545 229.96C562.625 230.2 562.779 230.36 563.005 230.44C563.245 230.507 563.592 230.54 564.045 230.54H565.505C566.132 230.54 566.639 230.473 567.025 230.34C567.425 230.207 567.739 230 567.965 229.72C568.205 229.427 568.385 229.04 568.505 228.56C568.625 228.08 568.719 227.493 568.785 226.8H569.245C569.205 227.213 569.185 227.76 569.185 228.44C569.185 228.693 569.192 229.06 569.205 229.54C569.232 230.007 569.272 230.493 569.325 231C568.645 230.973 567.879 230.96 567.025 230.96C566.172 230.947 565.412 230.94 564.745 230.94C564.452 230.94 564.072 230.94 563.605 230.94C563.152 230.94 562.659 230.947 562.125 230.96C561.592 230.96 561.052 230.967 560.505 230.98C559.959 230.98 559.439 230.987 558.945 231V230.6C559.399 230.573 559.739 230.52 559.965 230.44C560.205 230.36 560.365 230.2 560.445 229.96C560.525 229.72 560.565 229.36 560.565 228.88V218.96C560.565 218.467 560.525 218.107 560.445 217.88C560.365 217.64 560.205 217.48 559.965 217.4C559.739 217.307 559.399 217.253 558.945 217.24V216.84C559.225 216.853 559.592 216.867 560.045 216.88C560.499 216.893 560.985 216.9 561.505 216.9C561.972 216.9 562.432 216.893 562.885 216.88C563.352 216.867 563.739 216.853 564.045 216.84ZM586.723 215.7C587.07 215.7 587.37 215.827 587.623 216.08C587.877 216.333 588.003 216.633 588.003 216.98C588.003 217.327 587.877 217.627 587.623 217.88C587.37 218.133 587.07 218.26 586.723 218.26C586.377 218.26 586.077 218.133 585.823 217.88C585.57 217.627 585.443 217.327 585.443 216.98C585.443 216.633 585.57 216.333 585.823 216.08C586.077 215.827 586.377 215.7 586.723 215.7ZM587.763 220.48V229.14C587.763 229.7 587.877 230.08 588.103 230.28C588.343 230.48 588.737 230.58 589.283 230.58V231C589.057 230.987 588.71 230.973 588.243 230.96C587.79 230.933 587.33 230.92 586.863 230.92C586.41 230.92 585.95 230.933 585.483 230.96C585.017 230.973 584.67 230.987 584.443 231V230.58C584.99 230.58 585.377 230.48 585.603 230.28C585.843 230.08 585.963 229.7 585.963 229.14V222.88C585.963 222.28 585.857 221.84 585.643 221.56C585.43 221.267 585.03 221.12 584.443 221.12V220.7C584.87 220.74 585.283 220.76 585.683 220.76C586.07 220.76 586.437 220.74 586.783 220.7C587.143 220.647 587.47 220.573 587.763 220.48ZM611.023 220.42C611.529 220.42 611.949 220.487 612.283 220.62C612.629 220.753 612.916 220.94 613.143 221.18C613.396 221.447 613.576 221.78 613.683 222.18C613.789 222.58 613.843 223.12 613.843 223.8V229.14C613.843 229.7 613.956 230.08 614.183 230.28C614.423 230.48 614.816 230.58 615.363 230.58V231C615.136 230.987 614.789 230.973 614.323 230.96C613.856 230.933 613.403 230.92 612.963 230.92C612.523 230.92 612.089 230.933 611.663 230.96C611.249 230.973 610.936 230.987 610.723 231V230.58C611.203 230.58 611.543 230.48 611.743 230.28C611.943 230.08 612.043 229.7 612.043 229.14V223.36C612.043 222.947 612.009 222.567 611.943 222.22C611.876 221.873 611.723 221.593 611.483 221.38C611.256 221.167 610.903 221.06 610.423 221.06C609.863 221.06 609.369 221.22 608.943 221.54C608.529 221.86 608.203 222.3 607.963 222.86C607.736 223.407 607.623 224.02 607.623 224.7V229.14C607.623 229.7 607.723 230.08 607.923 230.28C608.123 230.48 608.463 230.58 608.943 230.58V231C608.729 230.987 608.409 230.973 607.983 230.96C607.569 230.933 607.143 230.92 606.703 230.92C606.263 230.92 605.809 230.933 605.343 230.96C604.876 230.973 604.529 230.987 604.303 231V230.58C604.849 230.58 605.236 230.48 605.463 230.28C605.703 230.08 605.823 229.7 605.823 229.14V222.88C605.823 222.28 605.716 221.84 605.503 221.56C605.289 221.267 604.889 221.12 604.303 221.12V220.7C604.729 220.74 605.143 220.76 605.543 220.76C605.929 220.76 606.296 220.74 606.643 220.7C607.003 220.647 607.329 220.573 607.623 220.48V222.84C607.969 221.933 608.449 221.307 609.063 220.96C609.689 220.6 610.343 220.42 611.023 220.42Z" fill="#DADADA"/>
</g>
<defs>
<filter id="filter0_d_217_7" x="48.36" y="121.24" width="572.118" height="67.88" filterUnits="userSpaceOnUse" color-interpolation-filters="sRGB">
<feFlood flood-opacity="0" result="BackgroundImageFix"/>
<feColorMatrix in="SourceAlpha" type="matrix" values="0 0 0 0 0 0 0 0 0 0 0 0 0 0 0 0 0 0 127 0" result="hardAlpha"/>
<feOffset dx="5" dy="5"/>
<feGaussianBlur stdDeviation="2"/>
<feComposite in2="hardAlpha" operator="out"/>
<feColorMatrix type="matrix" values="0 0 0 0 0 0 0 0 0 0 0 0 0 0 0 0 0 0 0.25 0"/>
<feBlend mode="normal" in2="BackgroundImageFix" result="effect1_dropShadow_217_7"/>
<feBlend mode="normal" in="SourceGraphic" in2="effect1_dropShadow_217_7" result="shape"/>
</filter>
<filter id="filter1_d_217_7" x="44.86" y="72.74" width="65.924" height="23.54" filterUnits="userSpaceOnUse" color-interpolation-filters="sRGB">
<feFlood flood-opacity="0" result="BackgroundImageFix"/>
<feColorMatrix in="SourceAlpha" type="matrix" values="0 0 0 0 0 0 0 0 0 0 0 0 0 0 0 0 0 0 127 0" result="hardAlpha"/>
<feOffset dx="5" dy="5"/>
<feGaussianBlur stdDeviation="2"/>
<feComposite in2="hardAlpha" operator="out"/>
<feColorMatrix type="matrix" values="0 0 0 0 0 0 0 0 0 0 0 0 0 0 0 0 0 0 0.25 0"/>
<feBlend mode="normal" in2="BackgroundImageFix" result="effect1_dropShadow_217_7"/>
<feBlend mode="normal" in="SourceGraphic" in2="effect1_dropShadow_217_7" result="shape"/>
</filter>
<filter id="filter2_d_217_7" x="416.84" y="215.7" width="207.523" height="28.06" filterUnits="userSpaceOnUse" color-interpolation-filters="sRGB">
<feFlood flood-opacity="0" result="BackgroundImageFix"/>
<feColorMatrix in="SourceAlpha" type="matrix" values="0 0 0 0 0 0 0 0 0 0 0 0 0 0 0 0 0 0 127 0" result="hardAlpha"/>
<feOffset dx="5" dy="5"/>
<feGaussianBlur stdDeviation="2"/>
<feComposite in2="hardAlpha" operator="out"/>
<feColorMatrix type="matrix" values="0 0 0 0 0 0 0 0 0 0 0 0 0 0 0 0 0 0 0.25 0"/>
<feBlend mode="normal" in2="BackgroundImageFix" result="effect1_dropShadow_217_7"/>
<feBlend mode="normal" in="SourceGraphic" in2="effect1_dropShadow_217_7" result="shape"/>
</filter>
</defs>
</svg>
