<svg width="128" height="128" viewBox="0 0 128 128" fill="none" xmlns="http://www.w3.org/2000/svg">
<rect width="128" height="128" rx="20" fill="#010101"/>
<g filter="url(#filter0_d_120_71)">
<path d="M26.728 86V82.736H32.936V45.616H26.856V42.352H39.656V86H26.728ZM39.656 86V82.288H52.328C55.272 82.288 57.5973 81.584 59.304 80.176C61.0533 78.768 61.928 76.6773 61.928 73.904C61.928 71.216 61.0533 69.168 59.304 67.76C57.5973 66.352 55.272 65.648 52.328 65.648H39.656V63.216H54.44C58.8347 63.216 62.2907 64.1333 64.808 65.968C67.368 67.76 68.648 70.5547 68.648 74.352C68.648 78.2347 67.368 81.1573 64.808 83.12C62.248 85.04 58.8133 86 54.504 86H39.656ZM39.656 63.92V61.936H50.728C53.5867 61.936 55.8267 61.2747 57.448 59.952C59.112 58.5867 59.944 56.5813 59.944 53.936C59.944 51.3333 59.112 49.3707 57.448 48.048C55.8267 46.6827 53.5867 46 50.728 46H39.656V42.352H52.776C56.9573 42.352 60.3067 43.2693 62.824 45.104C65.384 46.896 66.664 49.6267 66.664 53.296C66.664 56.88 65.4267 59.5467 62.952 61.296C60.52 63.0453 57.192 63.92 52.968 63.92H39.656ZM93.071 86.512C91.7483 86.512 90.6603 86.1067 89.807 85.296C88.9963 84.4427 88.591 83.3547 88.591 82.032C88.591 80.752 88.9963 79.7067 89.807 78.896C90.6603 78.0427 91.7483 77.616 93.071 77.616C94.479 77.616 95.5883 78.0427 96.399 78.896C97.2523 79.7067 97.679 80.7733 97.679 82.096C97.679 83.376 97.2523 84.4427 96.399 85.296C95.5883 86.1067 94.479 86.512 93.071 86.512Z" fill="#F0F0F0"/>
</g>
<defs>
<filter id="filter0_d_120_71" x="26.728" y="42.352" width="79.9509" height="53.16" filterUnits="userSpaceOnUse" color-interpolation-filters="sRGB">
<feFlood flood-opacity="0" result="BackgroundImageFix"/>
<feColorMatrix in="SourceAlpha" type="matrix" values="0 0 0 0 0 0 0 0 0 0 0 0 0 0 0 0 0 0 127 0" result="hardAlpha"/>
<feOffset dx="5" dy="5"/>
<feGaussianBlur stdDeviation="2"/>
<feComposite in2="hardAlpha" operator="out"/>
<feColorMatrix type="matrix" values="0 0 0 0 0 0 0 0 0 0 0 0 0 0 0 0 0 0 0.25 0"/>
<feBlend mode="normal" in2="BackgroundImageFix" result="effect1_dropShadow_120_71"/>
<feBlend mode="normal" in="SourceGraphic" in2="effect1_dropShadow_120_71" result="shape"/>
</filter>
</defs>
</svg>
